<svg xmlns="http://www.w3.org/2000/svg" xmlns:xlink="http://www.w3.org/1999/xlink" width="32" height="32" version="1.1" style=""><rect id="backgroundrect" width="100%" height="100%" x="0" y="0" fill="none" stroke="none"/>

<g class="currentLayer" style=""><title>Layer 1</title><g id="surface1" class="selected" stroke-width="" fill="#d32a35" fill-opacity="1">
<path style="stroke: none; fill-rule: nonzero;" d="M 22.992188 20.609375 C 22.703125 20.941406 22.382812 21.242188 22 21.464844 L 22 22.898438 C 26.15625 23.480469 29 24.648438 29 26 C 29 27.933594 23.179688 29.5 16 29.5 C 8.820312 29.5 3 27.933594 3 26 C 3 24.648438 5.84375 23.480469 10 22.898438 L 10 21.464844 C 9.617188 21.242188 9.296875 20.941406 9.007812 20.609375 C 3.679688 21.582031 0 23.628906 0 26 C 0 29.3125 7.164062 32 16 32 C 24.835938 32 32 29.3125 32 26 C 32 23.628906 28.320312 21.582031 22.992188 20.609375 Z M 16 8 C 18.210938 8 20 6.210938 20 4 C 20 1.789062 18.210938 0 16 0 C 13.789062 0 12 1.789062 12 4 C 12 6.210938 13.789062 8 16 8 Z M 12 20 L 12 26 C 12 27.105469 12.894531 28 14 28 L 18 28 C 19.105469 28 20 27.105469 20 26 L 20 20 C 21.105469 20 22 19.105469 22 18 L 22 12 C 22 10.34375 20.65625 9 19 9 L 18.261719 9 C 17.570312 9.3125 16.808594 9.5 16 9.5 C 15.191406 9.5 14.429688 9.3125 13.738281 9 L 13 9 C 11.34375 9 10 10.34375 10 12 L 10 18 C 10 19.105469 10.894531 20 12 20 Z M 12 20 " id="svg_1" stroke-width="" fill="#d32a35" fill-opacity="1"/>
</g></g></svg>